<?xml version="1.0"?>
<svg xmlns="http://www.w3.org/2000/svg" xmlns:xlink="http://www.w3.org/1999/xlink" xmlns:svgjs="http://svgjs.com/svgjs" version="1.1" width="512" height="512" x="0" y="0" viewBox="0 0 64 64" style="enable-background:new 0 0 512 512" xml:space="preserve" class=""><g><path xmlns="http://www.w3.org/2000/svg" d="m51 23-4 5-8 3-1 5 2 4h-6l-3-5v-4h-4l-2 15 6 5 .79 1.32 2.21 3.68 6 1v4l-4 2h-6l-2-6-9-5-2-10 .39-2.13 1.61-8.87-5-4 3-6-4-13 8-7h7l5 9-2 5 9-5 7 5v5z" fill="#e74c3c" data-original="#769b1b" style="" class=""/><path xmlns="http://www.w3.org/2000/svg" d="m51 23-1.61 2.01-7.39-7.01-15 1.27-2.25-3.27-8.45 2.73-3.3-10.73 8-7h7l5 9-2 5 9-5 7 5v5z" fill="#f1c40f" data-original="#bbd036" style="" class=""/><path xmlns="http://www.w3.org/2000/svg" d="m40 57v4l-4 2h-6l-2-6-9-5-2-10 .39-2.12.61 3.7 5 5.42 6.46 3.32h2.33l2.21 3.68z" fill="#2ecc71" data-original="#546b1c" style="" class=""/><g xmlns="http://www.w3.org/2000/svg" fill="#082944"><path d="m36 23a1 1 0 0 0 0-2h-1a1 1 0 0 0 0 2z" fill="#082944" data-original="#082944" style="" class=""/><path d="m39 23h1a1 1 0 0 0 0-2h-1a1 1 0 0 0 0 2z" fill="#082944" data-original="#082944" style="" class=""/><path d="m16.02 42.2 2 10a1 1 0 0 0 .495.678l8.66 4.811 1.877 5.631a1 1 0 0 0 .948.68h6a1 1 0 0 0 .447-.105l4-2a1 1 0 0 0 .553-.895v-4a1 1 0 0 0 -.835-.986l-5.544-.924-2.763-4.6a.991.991 0 0 0 -.217-.253l-5.576-4.647.594-4.453a1 1 0 1 0 -1.982-.265l-.667 5a1 1 0 0 0 .351.9l5.87 4.892 2.913 4.855a1 1 0 0 0 .693.472l5.163.856v2.535l-3.236 1.618h-5.043l-1.772-5.316a1 1 0 0 0 -.463-.558l-8.6-4.775-1.872-9.359 1.966-10.813a1 1 0 0 0 -.359-.959l-4.369-3.5 2.639-5.277a1 1 0 0 0 .061-.741l-1.23-4.002a1 1 0 1 0 -1.911.588l1.115 3.625-2.821 5.642a1 1 0 0 0 .27 1.228l4.534 3.627-1.893 10.411a1 1 0 0 0 .004.379z" fill="#082944" data-original="#082944" style="" class=""/><path d="m42.351 30.812a1 1 0 0 0 -.7-1.873l-3 1.125a1 1 0 0 0 -.629.74l-1 5a1 1 0 0 0 .086.644l1.274 2.552h-3.816l-2.566-4.277v-3.723a1 1 0 0 0 -1-1h-4a1 1 0 0 0 -.991.868l-.8 6a1 1 0 1 0 1.982.265l.684-5.133h2.125v3a1 1 0 0 0 .143.515l3 5a1 1 0 0 0 .857.485h6a1 1 0 0 0 .895-1.447l-1.847-3.693.824-4.119z" fill="#082944" data-original="#082944" style="" class=""/><path d="m33.874 9.514-5-9a1 1 0 0 0 -.874-.514h-7a1 1 0 0 0 -.659.248l-8 7a1 1 0 0 0 -.3 1.046l1.544 5.006a1 1 0 0 0 1.911-.588l-1.35-4.388 7.23-6.324h6.036l4.488 8.07-1.824 4.559a1 1 0 0 0 1.415 1.246l8.447-4.693 6.062 4.333v4.485a1 1 0 0 0 .4.8l3.175 2.381-3.184 3.979-.743.278a1 1 0 1 0 .7 1.873l1-.375a1 1 0 0 0 .43-.312l4-5a1 1 0 0 0 -.178-1.424l-3.6-2.7v-4.5a1 1 0 0 0 -.419-.814l-7-5a1 1 0 0 0 -1.067-.06l-6.541 3.634.956-2.388a1 1 0 0 0 -.055-.858z" fill="#082944" data-original="#082944" style="" class=""/></g></g></svg>
