<svg id="Layer_2" height="512" viewBox="0 0 64 64" width="512" xmlns="http://www.w3.org/2000/svg" data-name="Layer 2"><path d="m55 14-3-6h-5l-5 8 4 3-9.04 3.88-4.96 2.12-4.71-.52-4.29-.48-2-3h-3v-5l-6-2h-3l-2 7v4l-7 2v4l6 6v3l5 2.22 4 1.78h5l4-2 3 4-2 2 3 4 6-3 3 2h3l1.08-1.2 7.92-8.8v-6l-2-1-2-4 4-4 2 2 11-3v-4l2-4z" fill="#0d8d84"/><path d="m29 28v4l-10 1-2 4-6 1v4.22l-5-2.22v-3l-6-6v-4l7-2v-4l2-7h3l6 2v5h3l2 3 4.29.48-2.29 1.52.6.3h.01z" fill="#55bc8c"/><path d="m64 17-2 4v4l-11 3-2-2-4 4 2 4 2 1v6l-7.92 8.8-1.08-1.79v-.01l.1-.1 4.9-4.9.11-.67.89-5.33-2-4-3-1v-6l2-3-.58-.29-1.42-.71-4 1-.04-.12 9.04-3.88-4-3 5-8h5l3 6z" fill="#02483d"/><path d="m37.984 57h-1.968a1 1 0 0 1 0-2h1.969a1 1 0 0 1 0 2z" fill="#0d8d84"/><path d="m51 49h-2a1 1 0 0 1 0-2h2a1 1 0 0 1 0 2z" fill="#02483d"/><g fill="#68aaaa"><path d="m35.875 40h-.875a1 1 0 0 1 0-2h.875a1 1 0 0 1 0 2z"/><path d="m39.937 40h-.937a1 1 0 0 1 0-2h.937a1 1 0 0 1 0 2z"/></g></svg>