<?xml version="1.0"?>
<svg xmlns="http://www.w3.org/2000/svg" xmlns:xlink="http://www.w3.org/1999/xlink" xmlns:svgjs="http://svgjs.com/svgjs" version="1.1" width="512" height="512" x="0" y="0" viewBox="0 0 511.448 511.448" style="enable-background:new 0 0 512 512" xml:space="preserve" class=""><g>
<g xmlns="http://www.w3.org/2000/svg">
	<path style="" d="M282.788,114.33c0,37.204-21.364,71.117-54.127,87.498v-21.662   c21.916-14.559,35.348-39.358,35.348-65.836c0-43.556-35.437-78.982-78.982-78.982s-78.982,35.426-78.982,78.982   c0,26.478,13.432,51.277,35.348,65.836v21.662c-32.764-16.382-54.127-50.294-54.127-87.498c0-53.906,43.854-97.761,97.761-97.761   S282.788,60.424,282.788,114.33z" fill="#ffffff" data-original="#ffffff" class=""/>
	<path style="" d="M424.182,257.248v157.544c0,44.163-35.923,80.086-80.086,80.086H213.373   c-34.52,0-65.063-22.004-75.977-54.757l-31.394-94.204c-5.015-15.045,0.287-31.339,13.189-40.562l22.203-15.863v72.277   c0,4.573,3.712,8.285,8.285,8.285s8.285-3.712,8.285-8.285V114.33c0-7.611,3.226-14.913,8.87-20.027   c5.7-5.192,13.123-7.644,20.877-6.904c13.675,1.303,24.379,13.797,24.379,28.455v175.218c0,4.573,3.712,8.285,8.285,8.285   s8.285-3.712,8.285-8.285V238.05c0-7.611,3.226-14.913,8.87-20.027c5.7-5.192,13.123-7.655,20.877-6.904   c13.675,1.303,24.379,13.797,24.379,28.455v7.313v53.023c0,4.573,3.712,8.285,8.285,8.285c4.573,0,8.285-3.712,8.285-8.285v-53.023   c0-7.611,3.226-14.913,8.87-20.027c5.7-5.192,13.123-7.655,20.877-6.904c13.675,1.303,24.379,13.797,24.379,28.455v7.313v53.023   c0,4.573,3.712,8.285,8.285,8.285s8.285-3.712,8.285-8.285v-53.023c0-7.611,3.226-14.913,8.87-20.027   c5.7-5.192,13.123-7.655,20.877-6.904C413.478,230.096,424.182,242.59,424.182,257.248z" fill="#ffffff" data-original="#ffffff" class=""/>
</g>
<path xmlns="http://www.w3.org/2000/svg" style="" d="M247.44,114.33c0,16.934-6.948,32.985-18.779,44.594v-43.07c0-23.109-17.299-42.849-39.38-44.959  c-12.271-1.16-24.522,2.894-33.603,11.146c-9.08,8.252-14.283,20.027-14.283,32.289v44.594  c-11.831-11.61-18.779-27.671-18.779-44.594c0-34.409,28.003-62.412,62.412-62.412S247.44,79.921,247.44,114.33z" fill="#3f51b5" data-original="#c2e95d" class=""/>
<path xmlns="http://www.w3.org/2000/svg" style="" d="M440.751,257.248v157.544c0,53.299-43.357,96.656-96.656,96.656H213.373  c-41.667,0-78.518-26.556-91.696-66.091l-31.394-94.193c-7.336-21.993,0.42-45.82,19.275-59.286l31.836-22.744v-49.101  C98.92,202.48,70.696,160.581,70.696,114.33C70.696,51.288,121.985,0,185.026,0s114.33,51.288,114.33,114.33  c0,31.04-12.725,60.114-33.923,81.191c12.239,2.861,22.524,11.212,28.456,22.292c1.005-1.127,2.066-2.198,3.181-3.214  c9.081-8.252,21.332-12.306,33.603-11.146c14.604,1.392,27.12,10.505,33.912,23.197c1.005-1.127,2.066-2.198,3.181-3.214  c9.081-8.252,21.332-12.306,33.603-11.146C423.453,214.399,440.751,234.139,440.751,257.248z M424.182,414.792V257.248  c0-14.659-10.704-27.152-24.379-28.455c-7.755-0.751-15.177,1.712-20.877,6.904c-5.645,5.114-8.87,12.416-8.87,20.027v53.023  c0,4.573-3.712,8.285-8.285,8.285s-8.285-3.712-8.285-8.285v-53.023v-7.313c0-14.659-10.704-27.152-24.379-28.455  c-7.755-0.751-15.177,1.712-20.877,6.904c-5.645,5.114-8.87,12.416-8.87,20.027v53.023c0,4.573-3.712,8.285-8.285,8.285  c-4.573,0-8.285-3.712-8.285-8.285v-53.023v-7.313c0-14.659-10.704-27.152-24.379-28.455c-7.755-0.751-15.177,1.712-20.877,6.904  c-5.645,5.114-8.87,12.416-8.87,20.027v53.023c0,4.573-3.712,8.285-8.285,8.285c-4.573,0-8.285-3.712-8.285-8.285V115.855  c0-14.659-10.704-27.152-24.379-28.455c-7.755-0.74-15.177,1.712-20.877,6.904c-5.645,5.114-8.87,12.416-8.87,20.027v247.439  c0,4.573-3.712,8.285-8.285,8.285c-4.573,0-8.285-3.712-8.285-8.285v-72.277l-22.203,15.863  c-12.903,9.224-18.204,25.517-13.189,40.562l31.394,94.204c10.914,32.753,41.457,54.757,75.977,54.757H344.1  C388.259,494.878,424.182,458.955,424.182,414.792z M228.661,201.829c32.764-16.382,54.127-50.294,54.127-87.498  c0-53.906-43.854-97.761-97.761-97.761S87.267,60.424,87.267,114.33c0,37.204,21.364,71.117,54.127,87.498v-21.662  c-21.916-14.559-35.348-39.358-35.348-65.836c0-43.556,35.437-78.982,78.982-78.982s78.982,35.426,78.982,78.982  c0,26.478-13.432,51.277-35.348,65.836V201.829z M228.661,158.924c11.831-11.61,18.779-27.66,18.779-44.594  c0-34.409-28.003-62.412-62.412-62.412s-62.412,28.003-62.412,62.412c0,16.923,6.948,32.985,18.779,44.594V114.33  c0-12.261,5.203-24.037,14.283-32.289c9.081-8.252,21.332-12.306,33.603-11.146c22.082,2.11,39.38,21.85,39.38,44.959V158.924z" fill="#535757" data-original="#535757" class=""/>
<g xmlns="http://www.w3.org/2000/svg">
</g>
<g xmlns="http://www.w3.org/2000/svg">
</g>
<g xmlns="http://www.w3.org/2000/svg">
</g>
<g xmlns="http://www.w3.org/2000/svg">
</g>
<g xmlns="http://www.w3.org/2000/svg">
</g>
<g xmlns="http://www.w3.org/2000/svg">
</g>
<g xmlns="http://www.w3.org/2000/svg">
</g>
<g xmlns="http://www.w3.org/2000/svg">
</g>
<g xmlns="http://www.w3.org/2000/svg">
</g>
<g xmlns="http://www.w3.org/2000/svg">
</g>
<g xmlns="http://www.w3.org/2000/svg">
</g>
<g xmlns="http://www.w3.org/2000/svg">
</g>
<g xmlns="http://www.w3.org/2000/svg">
</g>
<g xmlns="http://www.w3.org/2000/svg">
</g>
<g xmlns="http://www.w3.org/2000/svg">
</g>
</g></svg>
