<?xml version="1.0"?>
<svg xmlns="http://www.w3.org/2000/svg" xmlns:xlink="http://www.w3.org/1999/xlink" xmlns:svgjs="http://svgjs.com/svgjs" version="1.1" width="512" height="512" x="0" y="0" viewBox="0 0 511.995 511.995" style="enable-background:new 0 0 512 512" xml:space="preserve" class=""><g>
<path xmlns="http://www.w3.org/2000/svg" d="M346.999,511.995c-22.429,0.001-44.06-12.513-54.479-33.798l-30.156-56.463l-17.107,32.654  c-0.438,0.838-0.937,1.644-1.489,2.411c-11.227,15.58-29.699,21.117-43.375,21.117c-0.11,0-0.22,0-0.331-0.001  c-15.284-0.101-30.503-6.659-41.752-17.995c-11.683-11.772-18.116-27.399-18.116-44.005V156.961  c0-23.619,13.308-44.471,34.729-54.419c21.218-9.854,45.475-6.722,63.469,8.149l131.747,98.111  c8.859,6.597,10.692,19.127,4.096,27.986c-6.598,8.859-19.127,10.692-27.986,4.095l-132.191-98.442  c-0.327-0.244-0.647-0.497-0.959-0.761c-9.047-7.64-18.61-4.12-21.328-2.859c-2.716,1.261-11.576,6.296-11.576,18.14v258.955  c0,12.887,10.609,21.938,20.132,22c0.03,0,0.062,0,0.092,0c3.892,0,8.171-1.612,10.303-3.798l33.758-64.438  c3.438-6.564,10.226-10.689,17.636-10.719c0.027,0,0.054,0,0.08,0c7.38,0,14.163,4.064,17.642,10.578l48.151,90.155  c0.136,0.254,0.266,0.511,0.39,0.771c4.8,10.002,16.898,14.354,26.966,9.693c5.013-2.318,8.795-6.458,10.652-11.658  c1.801-5.041,1.57-10.458-0.641-15.31l-48.596-86.476c-3.48-6.193-3.414-13.767,0.174-19.898c3.587-6.131,10.158-9.899,17.262-9.899  h68.568c11.604-0.593,16.237-9.731,17.387-12.539c1.18-2.879,4.385-12.958-3.896-21.741c-7.577-8.037-7.205-20.694,0.831-28.272  c8.037-7.578,20.695-7.204,28.272,0.832c16.41,17.405,20.936,42.059,11.809,64.342c-9.076,22.16-29.471,36.477-53.225,37.364  c-0.248,0.01-0.497,0.014-0.746,0.014h-34.819l32.196,57.293c0.197,0.352,0.385,0.709,0.561,1.072  c7.131,14.706,8.03,31.282,2.532,46.673c-5.497,15.392-16.693,27.647-31.527,34.508C364.016,510.216,355.45,511.994,346.999,511.995  z M162.808,78.542c9.686-5.311,13.231-17.468,7.92-27.153l-17-31c-5.311-9.685-17.466-13.23-27.152-7.919  c-9.686,5.311-13.231,17.468-7.92,27.153l17,31c3.638,6.634,10.486,10.387,17.554,10.387  C156.46,81.01,159.758,80.216,162.808,78.542z M120.515,124.023c4.427-10.12-0.188-21.913-10.307-26.34l-32-14  c-10.12-4.428-21.912,0.188-26.34,10.307c-4.427,10.12,0.188,21.913,10.307,26.34l32,14c2.609,1.142,5.329,1.682,8.006,1.682  C109.886,136.011,117.229,131.533,120.515,124.023z M245.166,59.331l11-33c3.493-10.479-2.17-21.806-12.649-25.298  c-10.475-3.495-21.806,2.17-25.298,12.649l-11,33c-3.493,10.479,2.17,21.806,12.649,25.298c2.098,0.7,4.23,1.032,6.327,1.032  C234.568,73.012,242.373,67.711,245.166,59.331z M298.096,110.078l27-20c8.876-6.575,10.741-19.1,4.167-27.976  c-6.575-8.876-19.101-10.741-27.976-4.167l-27,20c-8.876,6.575-10.741,19.1-4.167,27.976c3.924,5.297,9.966,8.097,16.087,8.097  C290.344,114.008,294.517,112.729,298.096,110.078z M79.62,222.576l30-12c10.256-4.102,15.244-15.742,11.142-25.997  c-4.103-10.257-15.744-15.245-25.997-11.142l-30,12c-10.256,4.102-15.244,15.742-11.142,25.997  c3.128,7.82,10.638,12.578,18.575,12.578C74.671,224.012,77.184,223.55,79.62,222.576z" fill="#3f51b5" data-original="#000000" style=""/>















</g></svg>
