<svg width="240" height="240" xmlns="http://www.w3.org/2000/svg">
 <!-- Created with Method Draw - http://github.com/duopixel/Method-Draw/ -->

 <g>
  <title>background</title>
  <rect fill="#fff" id="canvas_background" height="242" width="242" y="-1" x="-1"/>
  <g display="none" overflow="visible" y="0" x="0" height="100%" width="100%" id="canvasGrid">
   <rect fill="url(#gridpattern)" stroke-width="0" y="28.78843" x="31.30048" height="600" width="800"/>
  </g>
 </g>
 <g>
  <title>Layer 1</title>
  <g stroke="null" transform="rotate(16.95092010498047 112.80049133300783,87.28843688964845) " id="svg_34">
   <g stroke="null" transform="matrix(3.3519083500909423,0,0,3.127930111096144,9.626408086112995,59.43514670689278) " id="svg_27">
    <title stroke="null" transform="translate(3.281712532043457,-1.9182014465332031) translate(-0.5275084972381592,-0.9161967635154724) translate(-1.6552752256393433,-0.8765363097190857) translate(-0.21826770901679993,-0.9669380784034729) translate(0.5051242709159851,0) translate(6.0614914894104,-7.510560035705566) translate(-11.617857933044434,-2.781688928604126) translate(7.905314922332764,8.008045196533203) translate(0,-0.2781688868999481) translate(0,-0.2781688868999481) translate(0,-0.2781688868999481) translate(0,-0.2781688868999481) translate(0,-0.2781688868999481) translate(0,-0.2781688868999481) translate(0,-0.2781688868999481) translate(0,-0.2781688868999481) translate(0,-0.2781688868999481) translate(0,-0.2781688868999481) translate(0,-0.2781688868999481) translate(0,-0.2781688868999481) translate(0,-0.2781688868999481) translate(0,-0.2781688868999481) translate(0,-0.2781688868999481) translate(0,-0.2781688868999481) translate(0,-0.2781688868999481) translate(0,-0.2781688868999481) translate(0,-0.2781688868999481) translate(0,-0.2781688868999481) translate(-0.25256213545799255,0) translate(-0.25256213545799255,0) translate(-0.25256213545799255,0) translate(-0.25256213545799255,0) translate(-0.25256213545799255,0) translate(-0.25256213545799255,0) translate(-0.25256213545799255,0) translate(-0.25256213545799255,0) translate(-0.25256213545799255,0) translate(-0.25256213545799255,0) translate(-0.25256213545799255,0) translate(-0.25256213545799255,0) translate(-0.25256213545799255,0) translate(-0.25256213545799255,0) translate(-0.25256213545799255,0) translate(-0.25256213545799255,0) translate(5.808928966522217,0.2781688868999481) translate(-0.9422622919082642,-2.269443988800049) translate(-0.21625946462154388,0) translate(-0.21625946462154388,0) translate(-0.21625946462154388,0) translate(0,0.23916129767894745) translate(0,0.23916129767894745) translate(0,0.23916129767894745) translate(0,0.23916129767894745) translate(0,0.23916129767894745) translate(0,0.23916129767894745) translate(0,0.23916129767894745) translate(0,0.23916129767894745) translate(0,0.23916129767894745) translate(0,0.23916129767894745) translate(-0.21625946462154388,0) translate(0,-0.23916129767894745) translate(0,-0.23916129767894745) translate(0,-0.23916129767894745) translate(0,-0.23916129767894745) translate(0,-0.23916129767894745) translate(0,-0.23916129767894745) translate(0,-0.23916129767894745) translate(0,-0.23916129767894745) translate(0,-0.23916129767894745) translate(-0.21625946462154388,0) translate(-0.21625946462154388,0) translate(-0.21625946462154388,0) translate(-0.21625946462154388,0) translate(-0.21625946462154388,0) translate(-0.21625946462154388,0) translate(-0.21625946462154388,0) translate(-0.21625946462154388,0) translate(-0.21625946462154388,0) translate(0,0.23916129767894745) translate(0,0.23916129767894745) translate(0,0.23916129767894745) translate(0,0.23916129767894745) translate(0,0.23916129767894745) translate(0.22310934960842133,-0.45233383774757385) translate(-0.19937457144260406,0) translate(0.39874914288520813,-0.9079301953315735) translate(-0.42105066776275635,4.815197944641113) translate(-11.929768562316895,-12.188469886779785) translate(8.959596633911133,0) translate(0,-1.2799992561340332) ">4. China, map</title>
    <path stroke="null" id="svg_28" fill="#4a4a4a" d="m37.21629,0.2347l7.958,-3.411a1,1 0 0 0 0.206,-1.719l-3.265,-2.449l4.22,-6.751l3.827,0l2.724,5.447a1,1 0 0 0 0.543,0.489l6.96,2.61l-1.5,3.006a1,1 0 0 0 -0.109,0.448l0,3.256l-8.715,2.615l-1.578,-1.578a1,1 0 0 0 -1.414,0l-4,4a1,1 0 0 0 -0.187,1.154l2,4a1,1 0 0 0 0.447,0.447l1.447,0.724l0,5l-8.445,9.382l-2.255,0l-2.748,-1.832a1,1 0 0 0 -1,-0.062l-5.252,2.626l-1.98,-2.638l1.387,-1.387a1,1 0 0 0 0.093,-1.307l-3,-4a1,1 0 0 0 -1.247,-0.294l-3.789,1.894l-4.552,0l-2.846,-1.265a1,1 0 1 0 -0.812,1.827l3.04,1.352a1,1 0 0 0 0.406,0.086l5,0a1,1 0 0 0 0.447,-0.105l3.253,-1.627l1.979,2.639l-1.387,1.387a1,1 0 0 0 -0.092,1.306l3,4a1,1 0 0 0 1.247,0.294l5.48,-2.741l2.518,1.678a1,1 0 0 0 0.555,0.169l3,0a1,1 0 0 0 0.743,-0.331l9,-10a1,1 0 0 0 0.257,-0.669l0,-6a1,1 0 0 0 -0.553,-0.895l-1.7,-0.851l-1.53,-3.054l2.783,-2.786l1.293,1.293a1,1 0 0 0 0.994,0.251l10,-3a1,1 0 0 0 0.713,-0.958l0,-3.764l1.895,-3.789a1,1 0 0 0 -0.543,-1.384l-7.633,-2.863l-2.824,-5.647a1,1 0 0 0 -0.895,-0.553l-5,0a1,1 0 0 0 -0.848,0.47l-5,8a1,1 0 0 0 0.248,1.33l2.616,1.962l-6.368,2.729a1,1 0 1 0 0.787,1.838l0.001,0.001z"/>
    <path stroke="null" id="svg_29" fill="#4a4a4a" d="m3.78029,14.2667l0,2.638a1,1 0 0 0 0.594,0.914l1.964,0.873a0.988,0.988 0 0 0 0.405,0.087a1,1 0 0 0 0.407,-1.914l-1.37,-0.61l0,-2.35a1,1 0 0 0 -0.231,-0.64l-4.769,-5.722l0,-2.917l5.316,-1.772a1,1 0 0 0 0.684,-0.949l0,-3.86l1.754,-6.14l2.084,0l5.162,1.721l0,4.279a1,1 0 0 0 1,1l2.465,0l1.7,2.555a1,1 0 0 0 0.722,0.439l9,1a0.972,0.972 0 0 0 0.5,-0.074l2.141,-0.92a1,1 0 0 0 -0.787,-1.839l-1.893,0.811l-8.275,-0.919l-1.741,-2.612a1,1 0 0 0 -0.832,-0.441l-2,0l0,-4a1,1 0 0 0 -0.684,-0.949l-6,-2a1,1 0 0 0 -0.316,-0.051l-3,0a1,1 0 0 0 -0.962,0.725l-2,7a1.007,1.007 0 0 0 -0.038,0.275l0,3.279l-5.316,1.772a1,1 0 0 0 -0.684,0.949l0,4a1,1 0 0 0 0.231,0.64l4.769,5.722z"/>
    <path stroke="null" id="svg_30" fill="#4a4a4a" d="m34.79629,31.9047a1,1 0 0 0 0,2l1.969,0a1,1 0 0 0 0,-2l-1.969,0z"/>
    <path stroke="null" id="svg_31" fill="#4a4a4a" d="m47.78029,23.9047a1,1 0 0 0 0,2l2,0a1,1 0 0 0 0,-2l-2,0z"/>
    <path stroke="null" id="svg_32" fill="#4a4a4a" d="m32.78029,15.9047a1,1 0 0 0 1,1l0.875,0a1,1 0 0 0 0,-2l-0.875,0a1,1 0 0 0 -1,1z"/>
    <path stroke="null" id="svg_33" fill="#4a4a4a" d="m38.71829,16.9047a1,1 0 0 0 0,-2l-0.938,0a1,1 0 0 0 0,2l0.938,0z"/>
   </g>
  </g>
  <g stroke="null" transform="rotate(-0.3745969831943512 141.99996948241983,159.99999999999815) " id="svg_57">
   <g stroke="null" transform="matrix(0.30562739236481756,0,0,0.34008593624572253,-78.40189550400893,-118.51820783523291) " id="svg_38">
    <path stroke="null" id="svg_39" fill="#a8ebc4" d="m633.26142,742.80681c-37.13,-23.947 -47.817,-73.46 -23.87,-110.59s73.46,-47.817 110.59,-23.87s47.817,73.46 23.87,110.59c-6.168,9.564 -14.306,17.702 -23.87,23.87l-12.32,8l0,-52.88c0,-17.143 -13.897,-31.04 -31.04,-31.04s-31.04,13.897 -31.04,31.04l0,52.96l-12.32,-8.08z"/>
    <path stroke="null" id="svg_40" fill="#ffffff" d="m741.34142,1041.84681c-13.36,0 -25.84,0 -37.2,-0.72c-12.8,-0.56 -44.64,-6.08 -64.88,-45.92l-70.48,-139.28c-10.794,-12.514 -9.435,-31.401 3.04,-42.24c4.895,-3.935 11,-6.055 17.28,-6c9.359,0.271 18.129,4.627 24,11.92l32,43.68l0.48,0.56l0,-165.92c0,-17.143 13.897,-31.04 31.04,-31.04s31.04,13.897 31.04,31.04l0,108.56c-1.453,-15.884 10.246,-29.938 26.13,-31.39c15.884,-1.453 29.937,10.246 31.39,26.13c0.16,1.75 0.16,3.51 0,5.26l0,22.64c-1.453,-15.884 10.246,-29.938 26.13,-31.39c15.884,-1.453 29.938,10.246 31.39,26.13c0.16,1.75 0.16,3.51 0,5.26l0,17.44c-1.453,-15.884 10.246,-29.937 26.13,-31.39c15.884,-1.453 29.938,10.246 31.39,26.13c0.16,1.75 0.16,3.51 0,5.26l0,105.84c-0.56,32.56 -15.28,87.44 -67.04,87.44c-3.76,0.16 -35.6,2 -71.84,2l0,0z"/>
    <path stroke="null" id="svg_41" fill="#3e3e3e" d="m851.50142,807.52681c-8.462,0.078 -16.613,3.202 -22.96,8.8c-4.633,-15.3 -18.577,-25.888 -34.56,-26.24c-7.951,0.12 -15.625,2.942 -21.76,8c-3.147,-17.272 -17.895,-30.022 -35.44,-30.64c-7.49,0.017 -14.778,2.427 -20.8,6.88l0,-19.36c43.557,-21.561 61.387,-74.35 39.826,-117.906s-74.35,-61.387 -117.906,-39.826s-61.387,74.35 -39.826,117.906c8.554,17.28 22.546,31.272 39.826,39.826l0,84.56l-18.24,-24.56c-12.636,-16.686 -36.386,-20.013 -53.12,-7.44c-15.641,13.392 -17.77,36.806 -4.8,52.8l70.48,138.56c22.16,43.6 57.52,49.68 72,50.24c12.48,0.56 25.28,0.72 37.52,0.72c38.56,0 72,-2 72,-2l0.8,0c57.84,0 74,-62.16 74.48,-95.28l0,-106c0.576,-20.979 -15.964,-38.453 -36.943,-39.029c-0.193,-0.005 -0.385,-0.009 -0.577,-0.011l0,0zm-246.72,-131.6c-0.198,-39.764 31.876,-72.16 71.64,-72.358c39.764,-0.198 72.16,31.876 72.358,71.64c0.123,24.649 -12.372,47.648 -33.118,60.959l0,-38.24c0.003,-21.561 -17.473,-39.043 -39.034,-39.046c-21.561,-0.003 -39.043,17.473 -39.046,39.034c0,0.004 0,0.008 0,0.011l0,38.24c-20.41,-13.248 -32.748,-35.908 -32.8,-60.24zm267.44,276.48c0,3.28 -1.92,80 -59.76,79.44c-0.56,0 -57.04,3.52 -108,1.28c-11.36,-0.48 -40,-5.52 -58.08,-41.52l-70.72,-139.28c-0.247,-0.482 -0.541,-0.938 -0.88,-1.36c-7.962,-9.114 -7.068,-22.947 2,-30.96c9.721,-6.996 23.258,-4.894 30.4,4.72l32,44.08l0.48,0.4c0.704,0.752 1.512,1.399 2.4,1.92l1.36,0.48l1.6,0l0.56,0l0.88,0l1.6,0l1.44,-0.64l0.8,0l0.4,-0.4c0.418,-0.356 0.794,-0.759 1.12,-1.2c0.305,-0.373 0.573,-0.775 0.8,-1.2c0.201,-0.438 0.361,-0.893 0.48,-1.36c0.053,-0.532 0.053,-1.068 0,-1.6c0,0 0,0 0,-0.56l0,-166.72c0,-12.725 10.315,-23.04 23.04,-23.04c12.725,0 23.04,10.315 23.04,23.04l0,0l0,141.6c0,4.418 3.582,8 8,8s8,-3.582 8,-8l0,-33.04c-1.235,-11.465 7.059,-21.761 18.525,-22.995s21.761,7.059 22.995,18.525c0.16,1.486 0.16,2.985 0,4.471l0,57.52c0,4.418 3.582,8 8,8s8,-3.582 8,-8l0,-34.88c-1.235,-11.465 7.059,-21.761 18.525,-22.995s21.761,7.059 22.995,18.525c0.16,1.486 0.16,2.985 0,4.471l0,64c0,4.418 3.582,8 8,8s8,-3.582 8,-8l0,-46.56c-1.235,-11.465 7.059,-21.761 18.525,-22.995c11.465,-1.235 21.761,7.059 22.995,18.525c0.16,1.486 0.16,2.985 0,4.471l0.48,105.837z"/>
    <g stroke="null" id="svg_42"/>
    <g stroke="null" id="svg_43"/>
    <g stroke="null" id="svg_44"/>
    <g stroke="null" id="svg_45"/>
    <g stroke="null" id="svg_46"/>
    <g stroke="null" id="svg_47"/>
    <g stroke="null" id="svg_48"/>
    <g stroke="null" id="svg_49"/>
    <g stroke="null" id="svg_50"/>
    <g stroke="null" id="svg_51"/>
    <g stroke="null" id="svg_52"/>
    <g stroke="null" id="svg_53"/>
    <g stroke="null" id="svg_54"/>
    <g stroke="null" id="svg_55"/>
    <g stroke="null" id="svg_56"/>
   </g>
  </g>
 </g>
</svg>