<svg width="223" height="255.00000000000003" xmlns="http://www.w3.org/2000/svg">
 <!-- Created with Method Draw - http://github.com/duopixel/Method-Draw/ -->

 <g>
  <title>background</title>
  <rect fill="#fff" id="canvas_background" height="257" width="225" y="-1" x="-1"/>
 </g>
 <g>
  <title>Layer 1</title>
  <g stroke="null" transform="rotate(23 100.52171325683598,92.06522369384764) " id="svg_235">
   <g stroke="null" transform="matrix(3.4839796759083774,0,0,3.438191977014427,-8.799960563378027,-31.548139526662112) " id="svg_224">
    <path stroke="null" id="svg_225" fill="#ffffff" d="m54.37799,17.95301l-3,-6l-5,0l-5,8l4,3l-9.04,3.88l-4.96,2.12l-4.71,-0.52l-4.29,-0.48l-2,-3l-3,0l0,-5l-6,-2l-3,0l-2,7l0,4l-6,2l0,4l5,6l0,3l5,2.22l4,1.78l5,0l4,-2l3,4l-2,2l3,4l6,-3l3,2l3,0l1.08,-1.2l7.92,-8.8l0,-6l-2,-1l-2,-4l4,-4l2,2l10,-3l0,-4l2,-4l-8,-3z"/>
    <path stroke="null" id="svg_226" fill="#ffffff" d="m28.37799,31.95301l0,4l-10,1l-2,4l-6,1l0,4.22l-5,-2.22l0,-3l-5,-6l0,-4l6,-2l0,-4l2,-7l3,0l6,2l0,5l3,0l2,3l4.29,0.48l-2.29,1.52l0.6,0.3l0.01,0l3.39,1.7z"/>
    <path stroke="null" id="svg_227" fill="#ffffff" d="m62.37799,20.95301l-2,4l0,4l-10,3l-2,-2l-4,4l2,4l2,1l0,6l-7.92,8.8l-1.08,-1.79l0,-0.01l0.1,-0.1l4.9,-4.9l0.11,-0.67l0.89,-5.33l-2,-4l-3,-1l0,-6l2,-3l-0.58,-0.29l-1.42,-0.71l-4,1l-0.04,-0.12l9.04,-3.88l-4,-3l5,-8l5,0l3,6l8,3z"/>
    <g stroke="null" id="svg_228" fill="#3f0606">
     <path stroke="null" id="svg_229" fill="#343434" d="m37.81399,27.28301l7.958,-3.411a1,1 0 0 0 0.206,-1.719l-3.265,-2.449l4.22,-6.751l3.827,0l2.724,5.447a1,1 0 0 0 0.543,0.489l6.96,2.61l-1.5,3.006a1,1 0 0 0 -0.109,0.448l0,3.256l-8.715,2.615l-1.578,-1.578a1,1 0 0 0 -1.414,0l-4,4a1,1 0 0 0 -0.187,1.154l2,4a1,1 0 0 0 0.447,0.447l1.447,0.724l0,5l-8.445,9.382l-2.255,0l-2.748,-1.832a1,1 0 0 0 -1,-0.062l-5.252,2.626l-1.98,-2.638l1.387,-1.387a1,1 0 0 0 0.093,-1.307l-3,-4a1,1 0 0 0 -1.247,-0.294l-3.789,1.894l-4.552,0l-2.846,-1.265a1,1 0 1 0 -0.812,1.827l3.04,1.352a1,1 0 0 0 0.406,0.086l5,0a1,1 0 0 0 0.447,-0.105l3.253,-1.627l1.979,2.639l-1.387,1.387a1,1 0 0 0 -0.092,1.306l3,4a1,1 0 0 0 1.247,0.294l5.48,-2.741l2.518,1.678a1,1 0 0 0 0.555,0.169l3,0a1,1 0 0 0 0.743,-0.331l9,-10a1,1 0 0 0 0.257,-0.669l0,-6a1,1 0 0 0 -0.553,-0.895l-1.7,-0.851l-1.53,-3.054l2.783,-2.786l1.293,1.293a1,1 0 0 0 0.994,0.251l10,-3a1,1 0 0 0 0.713,-0.958l0,-3.764l1.895,-3.789a1,1 0 0 0 -0.543,-1.384l-7.633,-2.863l-2.824,-5.647a1,1 0 0 0 -0.895,-0.553l-5,0a1,1 0 0 0 -0.848,0.47l-5,8a1,1 0 0 0 0.248,1.33l2.616,1.962l-6.368,2.729a1,1 0 1 0 0.787,1.838l0.001,0.001z"/>
     <path stroke="null" id="svg_230" fill="#343434" d="m4.37799,41.31501l0,2.638a1,1 0 0 0 0.594,0.914l1.964,0.873a0.988,0.988 0 0 0 0.405,0.087a1,1 0 0 0 0.407,-1.914l-1.37,-0.61l0,-2.35a1,1 0 0 0 -0.231,-0.64l-4.769,-5.722l0,-2.917l5.316,-1.772a1,1 0 0 0 0.684,-0.949l0,-3.86l1.754,-6.14l2.084,0l5.162,1.721l0,4.279a1,1 0 0 0 1,1l2.465,0l1.7,2.555a1,1 0 0 0 0.722,0.439l9,1a0.972,0.972 0 0 0 0.5,-0.074l2.141,-0.92a1,1 0 0 0 -0.787,-1.839l-1.893,0.811l-8.275,-0.919l-1.741,-2.612a1,1 0 0 0 -0.832,-0.441l-2,0l0,-4a1,1 0 0 0 -0.684,-0.949l-6,-2a1,1 0 0 0 -0.316,-0.051l-3,0a1,1 0 0 0 -0.962,0.725l-2,7a1.007,1.007 0 0 0 -0.038,0.275l0,3.279l-5.316,1.772a1,1 0 0 0 -0.684,0.949l0,4a1,1 0 0 0 0.231,0.64l4.769,5.722z"/>
     <path stroke="null" id="svg_231" fill="#343434" d="m35.39399,58.95301a1,1 0 0 0 0,2l1.969,0a1,1 0 0 0 0,-2l-1.969,0z"/>
     <path stroke="null" id="svg_232" fill="#343434" d="m48.37799,50.95301a1,1 0 0 0 0,2l2,0a1,1 0 0 0 0,-2l-2,0z"/>
     <path stroke="null" id="svg_233" fill="#343434" d="m33.37799,42.95301a1,1 0 0 0 1,1l0.875,0a1,1 0 0 0 0,-2l-0.875,0a1,1 0 0 0 -1,1z"/>
     <path stroke="null" id="svg_234" fill="#343434" d="m39.31599,43.95301a1,1 0 0 0 0,-2l-0.938,0a1,1 0 0 0 0,2l0.938,0z"/>
    </g>
   </g>
  </g>
  <g stroke="null" id="svg_220">
   <g stroke="null" transform="matrix(0.3349184087282087,0,0,0.356060866593118,-792.2504452347939,-884.811066993088) " id="svg_201">
    <path stroke="null" id="svg_202" fill="#2ecc71" d="m2654.34905,2892.39411c-37.13,-23.947 -47.817,-73.46 -23.87,-110.59s73.46,-47.817 110.59,-23.87s47.817,73.46 23.87,110.59c-6.168,9.564 -14.306,17.702 -23.87,23.87l-12.32,8l0,-52.88c0,-17.143 -13.897,-31.04 -31.04,-31.04s-31.04,13.897 -31.04,31.04l0,52.96l-12.32,-8.08z"/>
    <path stroke="null" id="svg_203" fill="#ffffff" d="m2762.42905,3191.43411c-13.36,0 -25.84,0 -37.2,-0.72c-12.8,-0.56 -44.64,-6.08 -64.88,-45.92l-70.48,-139.28c-10.794,-12.514 -9.435,-31.401 3.04,-42.24c4.895,-3.935 11,-6.055 17.28,-6c9.359,0.271 18.129,4.627 24,11.92l32,43.68l0.48,0.56l0,-165.92c0,-17.143 13.897,-31.04 31.04,-31.04s31.04,13.897 31.04,31.04l0,108.56c-1.453,-15.884 10.246,-29.938 26.13,-31.39c15.884,-1.453 29.937,10.246 31.39,26.13c0.16,1.75 0.16,3.51 0,5.26l0,22.64c-1.453,-15.884 10.246,-29.938 26.13,-31.39c15.884,-1.453 29.938,10.246 31.39,26.13c0.16,1.75 0.16,3.51 0,5.26l0,17.44c-1.453,-15.884 10.246,-29.937 26.13,-31.39c15.884,-1.453 29.938,10.246 31.39,26.13c0.16,1.75 0.16,3.51 0,5.26l0,105.84c-0.56,32.56 -15.28,87.44 -67.04,87.44c-3.76,0.16 -35.6,2 -71.84,2l0,0z"/>
    <path stroke="null" id="svg_204" fill="#343434" d="m2872.58905,2957.11411c-8.462,0.078 -16.613,3.202 -22.96,8.8c-4.633,-15.3 -18.577,-25.888 -34.56,-26.24c-7.951,0.12 -15.625,2.942 -21.76,8c-3.147,-17.272 -17.895,-30.022 -35.44,-30.64c-7.49,0.017 -14.778,2.427 -20.8,6.88l0,-19.36c43.557,-21.561 61.387,-74.35 39.826,-117.906s-74.35,-61.387 -117.906,-39.826s-61.387,74.35 -39.826,117.906c8.554,17.28 22.546,31.272 39.826,39.826l0,84.56l-18.24,-24.56c-12.636,-16.686 -36.386,-20.013 -53.12,-7.44c-15.641,13.392 -17.77,36.806 -4.8,52.8l70.48,138.56c22.16,43.6 57.52,49.68 72,50.24c12.48,0.56 25.28,0.72 37.52,0.72c38.56,0 72,-2 72,-2l0.8,0c57.84,0 74,-62.16 74.48,-95.28l0,-106c0.576,-20.979 -15.964,-38.453 -36.943,-39.029c-0.193,-0.005 -0.385,-0.009 -0.577,-0.011l0,0zm-246.72,-131.6c-0.198,-39.764 31.876,-72.16 71.64,-72.358c39.764,-0.198 72.16,31.876 72.358,71.64c0.123,24.649 -12.372,47.648 -33.118,60.959l0,-38.24c0.003,-21.561 -17.473,-39.043 -39.034,-39.046c-21.561,-0.003 -39.043,17.473 -39.046,39.034c0,0.004 0,0.008 0,0.011l0,38.24c-20.41,-13.248 -32.748,-35.908 -32.8,-60.24zm267.44,276.48c0,3.28 -1.92,80 -59.76,79.44c-0.56,0 -57.04,3.52 -108,1.28c-11.36,-0.48 -40,-5.52 -58.08,-41.52l-70.72,-139.28c-0.247,-0.482 -0.541,-0.938 -0.88,-1.36c-7.962,-9.114 -7.068,-22.947 2,-30.96c9.721,-6.996 23.258,-4.894 30.4,4.72l32,44.08l0.48,0.4c0.704,0.752 1.512,1.399 2.4,1.92l1.36,0.48l1.6,0l0.56,0l0.88,0l1.6,0l1.44,-0.64l0.8,0l0.4,-0.4c0.418,-0.356 0.794,-0.759 1.12,-1.2c0.305,-0.373 0.573,-0.775 0.8,-1.2c0.201,-0.438 0.361,-0.893 0.48,-1.36c0.053,-0.532 0.053,-1.068 0,-1.6c0,0 0,0 0,-0.56l0,-166.72c0,-12.725 10.315,-23.04 23.04,-23.04c12.725,0 23.04,10.315 23.04,23.04l0,0l0,141.6c0,4.418 3.582,8 8,8s8,-3.582 8,-8l0,-33.04c-1.235,-11.465 7.059,-21.761 18.525,-22.995s21.761,7.059 22.995,18.525c0.16,1.486 0.16,2.985 0,4.471l0,57.52c0,4.418 3.582,8 8,8s8,-3.582 8,-8l0,-34.88c-1.235,-11.465 7.059,-21.761 18.525,-22.995s21.761,7.059 22.995,18.525c0.16,1.486 0.16,2.985 0,4.471l0,64c0,4.418 3.582,8 8,8s8,-3.582 8,-8l0,-46.56c-1.235,-11.465 7.059,-21.761 18.525,-22.995c11.465,-1.235 21.761,7.059 22.995,18.525c0.16,1.486 0.16,2.985 0,4.471l0.48,105.837z"/>
    <g stroke="null" id="svg_205"/>
    <g stroke="null" id="svg_206"/>
    <g stroke="null" id="svg_207"/>
    <g stroke="null" id="svg_208"/>
    <g stroke="null" id="svg_209"/>
    <g stroke="null" id="svg_210"/>
    <g stroke="null" id="svg_211"/>
    <g stroke="null" id="svg_212"/>
    <g stroke="null" id="svg_213"/>
    <g stroke="null" id="svg_214"/>
    <g stroke="null" id="svg_215"/>
    <g stroke="null" id="svg_216"/>
    <g stroke="null" id="svg_217"/>
    <g stroke="null" id="svg_218"/>
    <g stroke="null" id="svg_219"/>
   </g>
  </g>
 </g>
</svg>