<?xml version="1.0"?>
<svg xmlns="http://www.w3.org/2000/svg" xmlns:xlink="http://www.w3.org/1999/xlink" xmlns:svgjs="http://svgjs.com/svgjs" version="1.1" width="512" height="512" x="0" y="0" viewBox="0 0 461.766 461.766" style="enable-background:new 0 0 512 512" xml:space="preserve" class=""><g>
<path xmlns="http://www.w3.org/2000/svg" style="" d="M142.999,154.726c-37.13-23.947-47.817-73.46-23.87-110.59s73.46-47.817,110.59-23.87  s47.817,73.46,23.87,110.59c-6.168,9.564-14.306,17.702-23.87,23.87l-12.32,8v-52.88c0-17.143-13.897-31.04-31.04-31.04  s-31.04,13.897-31.04,31.04v52.96L142.999,154.726z" fill="#27ae60" data-original="#bac6f4" class=""/>
<path xmlns="http://www.w3.org/2000/svg" style="" d="M251.079,453.766c-13.36,0-25.84,0-37.2-0.72c-12.8-0.56-44.64-6.08-64.88-45.92l-70.48-139.28  c-10.794-12.514-9.435-31.401,3.04-42.24c4.895-3.935,11-6.055,17.28-6c9.359,0.271,18.129,4.627,24,11.92l32,43.68l0.48,0.56  v-165.92c0-17.143,13.897-31.04,31.04-31.04s31.04,13.897,31.04,31.04v108.56c-1.453-15.884,10.246-29.938,26.13-31.39  c15.884-1.453,29.937,10.246,31.39,26.13c0.16,1.75,0.16,3.51,0,5.26v22.64c-1.453-15.884,10.246-29.938,26.13-31.39  c15.884-1.453,29.938,10.246,31.39,26.13c0.16,1.75,0.16,3.51,0,5.26v17.44c-1.453-15.884,10.246-29.937,26.13-31.39  c15.884-1.453,29.938,10.246,31.39,26.13c0.16,1.75,0.16,3.51,0,5.26v105.84c-0.56,32.56-15.28,87.44-67.04,87.44  C319.159,451.926,287.319,453.766,251.079,453.766L251.079,453.766z" fill="#ffffff" data-original="#5078f2" class=""/>
<path xmlns="http://www.w3.org/2000/svg" style="" d="M361.239,219.446c-8.462,0.078-16.613,3.202-22.96,8.8c-4.633-15.3-18.577-25.888-34.56-26.24  c-7.951,0.12-15.625,2.942-21.76,8c-3.147-17.272-17.895-30.022-35.44-30.64c-7.49,0.017-14.778,2.427-20.8,6.88v-19.36  c43.557-21.561,61.387-74.35,39.826-117.906s-74.35-61.387-117.906-39.826s-61.387,74.35-39.826,117.906  c8.554,17.28,22.546,31.272,39.826,39.826v84.56l-18.24-24.56c-12.636-16.686-36.386-20.013-53.12-7.44  c-15.641,13.392-17.77,36.806-4.8,52.8l70.48,138.56c22.16,43.6,57.52,49.68,72,50.24c12.48,0.56,25.28,0.72,37.52,0.72  c38.56,0,72-2,72-2h0.8c57.84,0,74-62.16,74.48-95.28v-106c0.576-20.979-15.964-38.453-36.943-39.029  C361.623,219.452,361.431,219.448,361.239,219.446L361.239,219.446z M114.519,87.846c-0.198-39.764,31.876-72.16,71.64-72.358  c39.764-0.198,72.16,31.876,72.358,71.64c0.123,24.649-12.372,47.648-33.118,60.959v-38.24  c0.003-21.561-17.473-39.043-39.034-39.046c-21.561-0.003-39.043,17.473-39.046,39.034c0,0.004,0,0.008,0,0.011v38.24  C126.909,134.838,114.571,112.178,114.519,87.846z M381.959,364.326c0,3.28-1.92,80-59.76,79.44c-0.56,0-57.04,3.52-108,1.28  c-11.36-0.48-40-5.52-58.08-41.52l-70.72-139.28c-0.247-0.482-0.541-0.938-0.88-1.36c-7.962-9.114-7.068-22.947,2-30.96  c9.721-6.996,23.258-4.894,30.4,4.72l32,44.08l0.48,0.4c0.704,0.752,1.512,1.399,2.4,1.92l1.36,0.48h1.6h0.56h0.88h1.6l1.44-0.64  h0.8l0.4-0.4c0.418-0.356,0.794-0.759,1.12-1.2c0.305-0.373,0.573-0.775,0.8-1.2c0.201-0.438,0.361-0.893,0.48-1.36  c0.053-0.532,0.053-1.068,0-1.6c0,0,0,0,0-0.56v-166.72c0-12.725,10.315-23.04,23.04-23.04c12.725,0,23.04,10.315,23.04,23.04l0,0  v141.6c0,4.418,3.582,8,8,8s8-3.582,8-8v-33.04c-1.235-11.465,7.059-21.761,18.525-22.995s21.761,7.059,22.995,18.525  c0.16,1.486,0.16,2.985,0,4.471v57.52c0,4.418,3.582,8,8,8s8-3.582,8-8v-34.88c-1.235-11.465,7.059-21.761,18.525-22.995  s21.761,7.059,22.995,18.525c0.16,1.486,0.16,2.985,0,4.471v64c0,4.418,3.582,8,8,8s8-3.582,8-8v-46.56  c-1.235-11.465,7.059-21.761,18.525-22.995c11.465-1.235,21.761,7.059,22.995,18.525c0.16,1.486,0.16,2.985,0,4.471L381.959,364.326  z" fill="#263d5a" data-original="#223e60" class=""/>
<g xmlns="http://www.w3.org/2000/svg">
</g>
<g xmlns="http://www.w3.org/2000/svg">
</g>
<g xmlns="http://www.w3.org/2000/svg">
</g>
<g xmlns="http://www.w3.org/2000/svg">
</g>
<g xmlns="http://www.w3.org/2000/svg">
</g>
<g xmlns="http://www.w3.org/2000/svg">
</g>
<g xmlns="http://www.w3.org/2000/svg">
</g>
<g xmlns="http://www.w3.org/2000/svg">
</g>
<g xmlns="http://www.w3.org/2000/svg">
</g>
<g xmlns="http://www.w3.org/2000/svg">
</g>
<g xmlns="http://www.w3.org/2000/svg">
</g>
<g xmlns="http://www.w3.org/2000/svg">
</g>
<g xmlns="http://www.w3.org/2000/svg">
</g>
<g xmlns="http://www.w3.org/2000/svg">
</g>
<g xmlns="http://www.w3.org/2000/svg">
</g>
</g></svg>
