<?xml version="1.0"?>
<svg xmlns="http://www.w3.org/2000/svg" xmlns:xlink="http://www.w3.org/1999/xlink" xmlns:svgjs="http://svgjs.com/svgjs" version="1.1" width="512" height="512" x="0" y="0" viewBox="0 0 64 64" style="enable-background:new 0 0 512 512" xml:space="preserve" class=""><g transform="matrix(4.1148132451351065e-16,-0.96,0.96,4.1148132451351065e-16,1.2804120879341632,62.720391022965345)"><path xmlns="http://www.w3.org/2000/svg" d="m55 14-3-6h-5l-5 8 4 3-9.04 3.88-4.96 2.12-4.71-.52-4.29-.48-2-3h-3v-5l-6-2h-3l-2 7v4l-6 2v4l5 6v3l5 2.22 4 1.78h5l4-2 3 4-2 2 3 4 6-3 3 2h3l1.08-1.2 7.92-8.8v-6l-2-1-2-4 4-4 2 2 10-3v-4l2-4z" fill="#f1c40f" data-original="#0d8d84" style="" class=""/><path xmlns="http://www.w3.org/2000/svg" d="m29 28v4l-10 1-2 4-6 1v4.22l-5-2.22v-3l-5-6v-4l6-2v-4l2-7h3l6 2v5h3l2 3 4.29.48-2.29 1.52.6.3h.01z" fill="#2ecc71" data-original="#55bc8c" style="" class=""/><path xmlns="http://www.w3.org/2000/svg" d="m63 17-2 4v4l-10 3-2-2-4 4 2 4 2 1v6l-7.92 8.8-1.08-1.79v-.01l.1-.1 4.9-4.9.11-.67.89-5.33-2-4-3-1v-6l2-3-.58-.29-1.42-.71-4 1-.04-.12 9.04-3.88-4-3 5-8h5l3 6z" fill="#e74c3c" data-original="#02483d" style="" class=""/><g xmlns="http://www.w3.org/2000/svg" fill="#3f0606"><path d="m38.436 23.33 7.958-3.411a1 1 0 0 0 .206-1.719l-3.265-2.449 4.22-6.751h3.827l2.724 5.447a1 1 0 0 0 .543.489l6.96 2.61-1.5 3.006a1 1 0 0 0 -.109.448v3.256l-8.715 2.615-1.578-1.578a1 1 0 0 0 -1.414 0l-4 4a1 1 0 0 0 -.187 1.154l2 4a1 1 0 0 0 .447.447l1.447.724v5l-8.445 9.382h-2.255l-2.748-1.832a1 1 0 0 0 -1-.062l-5.252 2.626-1.98-2.638 1.387-1.387a1 1 0 0 0 .093-1.307l-3-4a1 1 0 0 0 -1.247-.294l-3.789 1.894h-4.552l-2.846-1.265a1 1 0 1 0 -.812 1.827l3.04 1.352a1 1 0 0 0 .406.086h5a1 1 0 0 0 .447-.105l3.253-1.627 1.979 2.639-1.387 1.387a1 1 0 0 0 -.092 1.306l3 4a1 1 0 0 0 1.247.294l5.48-2.741 2.518 1.678a1 1 0 0 0 .555.169h3a1 1 0 0 0 .743-.331l9-10a1 1 0 0 0 .257-.669v-6a1 1 0 0 0 -.553-.895l-1.7-.851-1.53-3.054 2.783-2.786 1.293 1.293a1 1 0 0 0 .994.251l10-3a1 1 0 0 0 .713-.958v-3.764l1.895-3.789a1 1 0 0 0 -.543-1.384l-7.633-2.863-2.824-5.647a1 1 0 0 0 -.895-.553h-5a1 1 0 0 0 -.848.47l-5 8a1 1 0 0 0 .248 1.33l2.616 1.962-6.368 2.729a1 1 0 1 0 .787 1.838z" fill="#000000" data-original="#3f0606" style="" class=""/><path d="m5 37.362v2.638a1 1 0 0 0 .594.914l1.964.873a.988.988 0 0 0 .405.087 1 1 0 0 0 .407-1.914l-1.37-.61v-2.35a1 1 0 0 0 -.231-.64l-4.769-5.722v-2.917l5.316-1.772a1 1 0 0 0 .684-.949v-3.86l1.754-6.14h2.084l5.162 1.721v4.279a1 1 0 0 0 1 1h2.465l1.7 2.555a1 1 0 0 0 .722.439l9 1a.972.972 0 0 0 .5-.074l2.141-.92a1 1 0 0 0 -.787-1.839l-1.893.811-8.275-.919-1.741-2.612a1 1 0 0 0 -.832-.441h-2v-4a1 1 0 0 0 -.684-.949l-6-2a1 1 0 0 0 -.316-.051h-3a1 1 0 0 0 -.962.725l-2 7a1.007 1.007 0 0 0 -.038.275v3.279l-5.316 1.772a1 1 0 0 0 -.684.949v4a1 1 0 0 0 .231.64z" fill="#000000" data-original="#3f0606" style="" class=""/><path d="m36.016 55a1 1 0 0 0 0 2h1.969a1 1 0 0 0 0-2z" fill="#000000" data-original="#3f0606" style="" class=""/><path d="m49 47a1 1 0 0 0 0 2h2a1 1 0 0 0 0-2z" fill="#000000" data-original="#3f0606" style="" class=""/><path d="m34 39a1 1 0 0 0 1 1h.875a1 1 0 0 0 0-2h-.875a1 1 0 0 0 -1 1z" fill="#000000" data-original="#3f0606" style="" class=""/><path d="m39.938 40a1 1 0 0 0 0-2h-.938a1 1 0 0 0 0 2z" fill="#000000" data-original="#3f0606" style="" class=""/></g></g></svg>
