<?xml version="1.0"?>
<svg xmlns="http://www.w3.org/2000/svg" xmlns:xlink="http://www.w3.org/1999/xlink" xmlns:svgjs="http://svgjs.com/svgjs" version="1.1" width="512" height="512" x="0" y="0" viewBox="0 0 512.005 512.005" style="enable-background:new 0 0 512 512" xml:space="preserve" class=""><g>
<path xmlns="http://www.w3.org/2000/svg" style="" d="M465.457,365.112l-234.667-192c-4.556-3.735-11.277-3.07-15.012,1.486  c-1.56,1.903-2.414,4.287-2.418,6.748v320c0.005,5.891,4.784,10.663,10.675,10.658c3.563-0.003,6.89-1.784,8.866-4.749  l82.197-123.243h143.595c5.891-0.007,10.661-4.788,10.654-10.679c-0.004-3.195-1.44-6.22-3.913-8.243L465.457,365.112z" fill="#3f51b5" data-original="#2196f3" class=""/>
<g xmlns="http://www.w3.org/2000/svg">
	<path style="" d="M162.779,351.331c-1.312,0.001-2.613-0.238-3.84-0.704   C65.468,314.673,18.841,209.753,54.795,116.282S195.668-23.816,289.14,12.138c93.469,35.953,140.097,140.87,104.146,234.34   c-2.115,5.502-8.29,8.248-13.792,6.133c-5.502-2.115-8.248-8.29-6.133-13.792c31.745-82.467-9.373-175.053-91.839-206.798   S106.468,41.394,74.723,123.86s9.373,175.053,91.839,206.798c0.019,0.007,0.038,0.015,0.057,0.022   c5.502,2.105,8.257,8.271,6.152,13.774c-1.583,4.139-5.56,6.868-9.992,6.856V351.331z" fill="#455a64" data-original="#455a64" class=""/>
	<path style="" d="M185.755,291.598c-1.312,0.001-2.613-0.238-3.84-0.704c-60.481-23.265-90.651-91.154-67.387-151.635   s91.154-90.651,151.635-67.387c60.479,23.264,90.65,91.15,67.389,151.63c-2.115,5.502-8.29,8.248-13.792,6.133   c-5.502-2.115-8.248-8.29-6.133-13.792l0,0c19.056-49.477-5.606-105.033-55.082-124.088s-105.033,5.606-124.088,55.082   c-19.056,49.477,5.606,105.033,55.082,124.088c0.019,0.007,0.038,0.014,0.056,0.022c5.502,2.105,8.257,8.271,6.152,13.773   c-1.583,4.139-5.561,6.868-9.992,6.856L185.755,291.598z" fill="#455a64" data-original="#455a64" class=""/>
</g>
<g xmlns="http://www.w3.org/2000/svg">
</g>
<g xmlns="http://www.w3.org/2000/svg">
</g>
<g xmlns="http://www.w3.org/2000/svg">
</g>
<g xmlns="http://www.w3.org/2000/svg">
</g>
<g xmlns="http://www.w3.org/2000/svg">
</g>
<g xmlns="http://www.w3.org/2000/svg">
</g>
<g xmlns="http://www.w3.org/2000/svg">
</g>
<g xmlns="http://www.w3.org/2000/svg">
</g>
<g xmlns="http://www.w3.org/2000/svg">
</g>
<g xmlns="http://www.w3.org/2000/svg">
</g>
<g xmlns="http://www.w3.org/2000/svg">
</g>
<g xmlns="http://www.w3.org/2000/svg">
</g>
<g xmlns="http://www.w3.org/2000/svg">
</g>
<g xmlns="http://www.w3.org/2000/svg">
</g>
<g xmlns="http://www.w3.org/2000/svg">
</g>
</g></svg>
