<?xml version="1.0" encoding="iso-8859-1"?>
<!-- Generator: Adobe Illustrator 19.0.0, SVG Export Plug-In . SVG Version: 6.00 Build 0)  -->
<svg version="1.1" id="Layer_1" xmlns="http://www.w3.org/2000/svg" xmlns:xlink="http://www.w3.org/1999/xlink" x="0px" y="0px"
	 viewBox="0 0 512 512" style="enable-background:new 0 0 512 512;" xml:space="preserve">
<g>
	<path style="fill:#E8EDEE;" d="M361.931,494.345H150.069c0-19.5,15.81-35.31,35.31-35.31h141.241
		C346.121,459.034,361.931,474.845,361.931,494.345"/>
	<polygon style="fill:#B0B6BB;" points="317.793,459.034 194.207,459.034 211.862,388.414 300.138,388.414 	"/>
	<path style="fill:#38454F;" d="M512,317.793H0V48.552c0-17.064,13.833-30.897,30.897-30.897h450.207
		c17.064,0,30.897,13.833,30.897,30.897V317.793z"/>
	<path style="fill:#E8EDEE;" d="M481.103,388.414H30.897C13.833,388.414,0,374.581,0,357.517v-39.724h512v39.724
		C512,374.581,498.167,388.414,481.103,388.414"/>
	<g>
		<path style="fill:#EA6148;" d="M256,132.414c-2.26,0-4.52-0.865-6.241-2.586c-3.452-3.452-3.452-9.031,0-12.482l35.31-35.31
			c3.452-3.452,9.031-3.452,12.482,0c3.452,3.452,3.452,9.031,0,12.482l-35.31,35.31C260.52,131.549,258.26,132.414,256,132.414"/>
		<path style="fill:#EA6148;" d="M291.31,132.414c-2.26,0-4.52-0.865-6.241-2.586l-35.31-35.31c-3.452-3.452-3.452-9.031,0-12.482
			c3.452-3.452,9.031-3.452,12.482,0l35.31,35.31c3.452,3.452,3.452,9.031,0,12.482C295.83,131.549,293.57,132.414,291.31,132.414"
			/>
		<path style="fill:#EA6148;" d="M423.724,264.828c-2.26,0-4.52-0.865-6.241-2.586c-3.452-3.452-3.452-9.031,0-12.482l35.31-35.31
			c3.452-3.452,9.031-3.452,12.482,0c3.452,3.452,3.452,9.031,0,12.482l-35.31,35.31
			C428.244,263.962,425.984,264.828,423.724,264.828"/>
		<path style="fill:#EA6148;" d="M459.034,264.828c-2.26,0-4.52-0.865-6.241-2.586l-35.31-35.31c-3.452-3.452-3.452-9.031,0-12.482
			s9.031-3.452,12.482,0l35.31,35.31c3.452,3.452,3.452,9.031,0,12.482C463.554,263.962,461.294,264.828,459.034,264.828"/>
	</g>
	<path style="fill:#ECBA16;" d="M474.103,99.69l-26.474-26.474c-0.821-0.821-1.792-1.465-2.878-1.916
		c-2.154-0.892-4.59-0.892-6.744,0c-1.086,0.45-2.066,1.095-2.878,1.916L408.655,99.69c-3.452,3.452-3.452,9.031,0,12.482
		c1.721,1.721,3.981,2.586,6.241,2.586s4.52-0.865,6.241-2.586l11.414-11.414v22.828c0,19.474-15.837,35.31-35.31,35.31h-79.448
		c-29.21,0-52.966,23.755-52.966,52.966c0,4.873,3.946,8.828,8.828,8.828s8.828-3.955,8.828-8.828
		c0-19.474,15.837-35.31,35.31-35.31h79.448c29.21,0,52.966-23.755,52.966-52.966v-22.828l11.414,11.414
		c1.721,1.721,3.981,2.586,6.241,2.586c2.26,0,4.52-0.865,6.241-2.586C477.555,108.721,477.555,103.142,474.103,99.69"/>
	<g>
		<path style="fill:#DD691D;" d="M70.621,88.276H44.138c-4.882,0-8.828-3.955-8.828-8.828c0-4.873,3.946-8.828,8.828-8.828h26.483
			c4.882,0,8.828,3.955,8.828,8.828C79.448,84.321,75.502,88.276,70.621,88.276"/>
		<path style="fill:#DD691D;" d="M194.207,88.276h-88.276c-4.882,0-8.828-3.955-8.828-8.828c0-4.873,3.946-8.828,8.828-8.828h88.276
			c4.882,0,8.828,3.955,8.828,8.828C203.034,84.321,199.089,88.276,194.207,88.276"/>
		<path style="fill:#DD691D;" d="M88.276,123.586H44.138c-4.882,0-8.828-3.955-8.828-8.828s3.946-8.828,8.828-8.828h44.138
			c4.882,0,8.828,3.955,8.828,8.828S93.158,123.586,88.276,123.586"/>
		<path style="fill:#DD691D;" d="M150.069,123.586h-26.483c-4.882,0-8.828-3.955-8.828-8.828s3.946-8.828,8.828-8.828h26.483
			c4.882,0,8.828,3.955,8.828,8.828S154.951,123.586,150.069,123.586"/>
		<path style="fill:#DD691D;" d="M194.207,123.586h-8.828c-4.882,0-8.828-3.955-8.828-8.828s3.946-8.828,8.828-8.828h8.828
			c4.882,0,8.828,3.955,8.828,8.828S199.089,123.586,194.207,123.586"/>
		<path style="fill:#DD691D;" d="M70.621,158.897H44.138c-4.882,0-8.828-3.955-8.828-8.828c0-4.873,3.946-8.828,8.828-8.828h26.483
			c4.882,0,8.828,3.955,8.828,8.828C79.448,154.942,75.502,158.897,70.621,158.897"/>
		<path style="fill:#DD691D;" d="M194.207,158.897h-88.276c-4.882,0-8.828-3.955-8.828-8.828c0-4.873,3.946-8.828,8.828-8.828
			h88.276c4.882,0,8.828,3.955,8.828,8.828C203.034,154.942,199.089,158.897,194.207,158.897"/>
		<path style="fill:#DD691D;" d="M88.276,194.207H44.138c-4.882,0-8.828-3.955-8.828-8.828c0-4.873,3.946-8.828,8.828-8.828h44.138
			c4.882,0,8.828,3.955,8.828,8.828C97.103,190.252,93.158,194.207,88.276,194.207"/>
		<path style="fill:#DD691D;" d="M150.069,194.207h-26.483c-4.882,0-8.828-3.955-8.828-8.828c0-4.873,3.946-8.828,8.828-8.828
			h26.483c4.882,0,8.828,3.955,8.828,8.828C158.897,190.252,154.951,194.207,150.069,194.207"/>
		<path style="fill:#DD691D;" d="M194.207,194.207h-8.828c-4.882,0-8.828-3.955-8.828-8.828c0-4.873,3.946-8.828,8.828-8.828h8.828
			c4.882,0,8.828,3.955,8.828,8.828C203.034,190.252,199.089,194.207,194.207,194.207"/>
		<path style="fill:#DD691D;" d="M70.621,229.517H44.138c-4.882,0-8.828-3.955-8.828-8.828c0-4.873,3.946-8.828,8.828-8.828h26.483
			c4.882,0,8.828,3.955,8.828,8.828C79.448,225.562,75.502,229.517,70.621,229.517"/>
		<path style="fill:#DD691D;" d="M194.207,229.517h-88.276c-4.882,0-8.828-3.955-8.828-8.828c0-4.873,3.946-8.828,8.828-8.828
			h88.276c4.882,0,8.828,3.955,8.828,8.828C203.034,225.562,199.089,229.517,194.207,229.517"/>
		<path style="fill:#DD691D;" d="M88.276,264.828H44.138c-4.882,0-8.828-3.955-8.828-8.828s3.946-8.828,8.828-8.828h44.138
			c4.882,0,8.828,3.955,8.828,8.828S93.158,264.828,88.276,264.828"/>
		<path style="fill:#DD691D;" d="M150.069,264.828h-26.483c-4.882,0-8.828-3.955-8.828-8.828s3.946-8.828,8.828-8.828h26.483
			c4.882,0,8.828,3.955,8.828,8.828S154.951,264.828,150.069,264.828"/>
		<path style="fill:#DD691D;" d="M194.207,264.828h-8.828c-4.882,0-8.828-3.955-8.828-8.828s3.946-8.828,8.828-8.828h8.828
			c4.882,0,8.828,3.955,8.828,8.828S199.089,264.828,194.207,264.828"/>
	</g>
	<path style="fill:#25AE88;" d="M300.138,238.345c0,14.627-11.855,26.483-26.483,26.483s-26.483-11.855-26.483-26.483
		c0-14.627,11.855-26.483,26.483-26.483S300.138,223.718,300.138,238.345"/>
</g>
<g>
</g>
<g>
</g>
<g>
</g>
<g>
</g>
<g>
</g>
<g>
</g>
<g>
</g>
<g>
</g>
<g>
</g>
<g>
</g>
<g>
</g>
<g>
</g>
<g>
</g>
<g>
</g>
<g>
</g>
</svg>
