<?xml version="1.0"?>
<svg xmlns="http://www.w3.org/2000/svg" xmlns:xlink="http://www.w3.org/1999/xlink" version="1.1" id="Layer_1" x="0px" y="0px" viewBox="0 0 512.018 512.018" style="enable-background:new 0 0 512.018 512.018;" xml:space="preserve" width="512px" height="512px" class=""><g><g>
	<g>
		<path d="M509.769,480.665L275.102,11.331c-7.253-14.464-30.933-14.464-38.187,0L2.249,480.665    c-3.307,6.613-2.944,14.464,0.939,20.757c3.904,6.272,10.752,10.112,18.155,10.112h469.333c7.403,0,14.251-3.84,18.155-10.112    C512.713,495.129,513.075,487.278,509.769,480.665z M256.009,426.201c-11.776,0-21.333-9.557-21.333-21.333    s9.557-21.333,21.333-21.333s21.333,9.557,21.333,21.333S267.785,426.201,256.009,426.201z M277.342,340.867    c0,11.776-9.536,21.333-21.333,21.333c-11.797,0-21.333-9.557-21.333-21.333V191.534c0-11.776,9.536-21.333,21.333-21.333    c11.797,0,21.333,9.557,21.333,21.333V340.867z" data-original="#000000" class="active-path" data-old_color="#000000" fill="#9F9F9F"/>
	</g>
</g></g> </svg>
