<svg height="512pt" viewBox="0 -26 512.00003 512" width="512pt" xmlns="http://www.w3.org/2000/svg" xmlns:xlink="http://www.w3.org/1999/xlink"><linearGradient id="a"><stop offset="0" stop-color="#e93e3a"/><stop offset=".355" stop-color="#ed683c"/><stop offset=".705" stop-color="#f3903f"/><stop offset="1" stop-color="#fdc70c"/></linearGradient><linearGradient id="b" gradientTransform="matrix(.698866 0 0 -.698866 0 500.677679)" gradientUnits="userSpaceOnUse" x1="11.3326" x2="829.4807" xlink:href="#a" y1="223.1351" y2="223.1351"/><linearGradient id="c" gradientTransform="matrix(.698866 0 0 -.698866 0 500.677679)" gradientUnits="userSpaceOnUse" x1="11.3326" x2="829.4807" xlink:href="#a" y1="551.9877" y2="551.9877"/><path d="m480 293.824219c0 26.507812-21.488281 48-48 48h-377.375l63.199219-63.199219-22.625-22.625-90.511719 90.511719c-6.246094 6.25-6.246094 16.375 0 22.625l90.511719 90.511719 22.625-22.625-63.199219-63.199219h377.375c44.160156-.054688 79.945312-35.839844 80-80v-64h-32zm0 0" fill="url(#b)"/><path d="m32 165.824219c0-26.507813 21.488281-48 48-48h377.375l-63.199219 63.199219 22.625 22.625 90.511719-90.511719c6.246094-6.25 6.246094-16.375 0-22.625l-90.511719-90.511719-22.625 22.625 63.199219 63.199219h-377.375c-44.160156.050781-79.9453125 35.839843-80 80v64h32zm0 0" fill="url(#c)"/></svg>