<svg id="Layer_1" height="512" viewBox="0 0 128 128" width="512" xmlns="http://www.w3.org/2000/svg" xmlns:xlink="http://www.w3.org/1999/xlink" data-name="Layer 1"><linearGradient id="linear-gradient" gradientUnits="userSpaceOnUse" x1="103.447" x2="24.575" y1="96.184" y2="17.311"><stop offset="0" stop-color="#fb503c"/><stop offset="1" stop-color="#3988d2"/></linearGradient><path d="m92.545 104.7q-.64 1.118-1.324 2.191a1.75 1.75 0 1 1 -2.951-1.881q.64-1 1.239-2.051a1.75 1.75 0 1 1 3.036 1.74zm-8.119 5.456c-5.613 6.366-12.485 9.594-20.426 9.594-11.563 0-20.729-6.753-27.246-20.07a1.75 1.75 0 1 0 -3.144 1.539c7.053 14.413 17.562 22.031 30.39 22.031 8.99 0 16.745-3.626 23.051-10.778a1.75 1.75 0 1 0 -2.625-2.314zm15.474-24.048a87.183 87.183 0 0 1 -4.476 12.892 1.75 1.75 0 0 1 -3.2-1.424c5.627-12.636 7.852-28.4 8.111-38.982-7.878 5.006-21.083 8.236-36.335 8.236s-28.455-3.23-36.336-8.235a114.371 114.371 0 0 0 6.1 33.969 1.75 1.75 0 1 1 -3.293 1.186c-.9-2.5-1.685-5.061-2.371-7.641-9.474-.827-12.895-7.982-12.895-14.1 0-6.489 3.489-10.873 9.017-11.6-.057-1.368-.085-2.667-.085-3.879a1.733 1.733 0 0 1 .091-.53c-2.76-2.536-4.3-5.394-4.3-8.439a8.976 8.976 0 0 1 .18-1.687c-.436-1.464-2.77-9.386-4.857-18.057a1.749 1.749 0 0 1 1.247-2.1c20.659-5.557 46.358-20.574 46.616-20.726a1.746 1.746 0 0 1 1.772 0c.042.024 4.317 2.53 10.69 5.832a1.75 1.75 0 0 1 -1.61 3.107c-4.766-2.466-8.375-4.499-9.966-5.409-4.656 2.674-26.14 14.7-44.946 20.116 1.56 6.322 3.182 12.036 3.979 14.777 13.286-4.068 34.426-6.164 40.967-6.164s27.681 2.1 40.964 6.165c.8-2.742 2.42-8.457 3.979-14.777a179.608 179.608 0 0 1 -27.527-10.98 1.75 1.75 0 0 1 1.521-3.152c10.95 5.286 20.561 9.058 28.563 11.211a1.749 1.749 0 0 1 1.247 2.1c-2.087 8.671-4.421 16.593-4.857 18.057a8.976 8.976 0 0 1 .18 1.687c0 3.044-1.537 5.9-4.3 8.439a1.733 1.733 0 0 1 .091.533c0 1.226-.031 2.53-.085 3.879 5.528.729 9.017 5.113 9.017 11.6.007 6.113-3.418 13.268-12.893 14.096zm-72.7-3.643a125.284 125.284 0 0 1 -2.777-18.552c-3.61.608-5.722 3.536-5.722 8.1-.001 4.523 2.299 9.364 8.499 10.452zm36.8-19.135c24.268 0 40.57-8.154 40.57-15.771a5.5 5.5 0 0 0 -.042-.614c-12.87-4.088-34.046-6.2-40.528-6.2s-27.658 2.108-40.528 6.2a5.5 5.5 0 0 0 -.042.614c0 7.617 16.302 15.771 40.57 15.771zm45.3 8.682c0-4.559-2.108-7.485-5.712-8.1a122.659 122.659 0 0 1 -2.765 18.548c6.186-1.094 8.477-5.929 8.477-10.448z" fill="url(#linear-gradient)"/></svg>